<svg xmlns="http://www.w3.org/2000/svg" width="24" height="24"><path fill="#f7ba0b" d="M24 12c0 3.332031-1.175781 6.15625-3.527344 8.472656C18.15625 22.824219 15.332031 24 12 24c-3.316406 0-6.152344-1.175781-8.5-3.527344C1.167969 18.15625 0 15.332031 0 12c0-3.316406 1.167969-6.152344 3.5-8.5C5.847656 1.167969 8.683594 0 12 0c3.332031 0 6.15625 1.167969 8.472656 3.5C22.824219 5.847656 24 8.683594 24 12m-9.5-2c0 .28125-.09375.515625-.277344.699219h-.023437C14 10.902344 13.765625 11 13.5 11h-3V9h3c.265625 0 .488281.09375.675781.277344l.046875.046875C14.40625 9.511719 14.5 9.734375 14.5 10m2 4c0-.765625-.25-1.433594-.75-2 .5-.566406.75-1.234375.75-2 0-.816406-.292969-1.515625-.875-2.097656L15.597656 7.875C15.015625 7.292969 14.316406 7 13.5 7h-5v10h5c.816406 0 1.515625-.292969 2.097656-.875l.027344-.027344c.582031-.582031.875-1.28125.875-2.097656m-2 0c0 .265625-.09375.488281-.277344.675781l-.046875.046875C13.988281 14.90625 13.765625 15 13.5 15h-3v-2h3c.265625 0 .5.097656.699219.300781h.023437C14.40625 13.484375 14.5 13.71875 14.5 14"/></svg>