<svg xmlns="http://www.w3.org/2000/svg" width="24" height="24"><path d="M9.5 0h5c1.332031 0 2 .667969 2 2v5.5H22c1.332031 0 2 .667969 2 2v5c0 1.332031-.667969 2-2 2h-5.5V22c0 1.332031-.667969 2-2 2h-5c-1.332031 0-2-.667969-2-2v-5.5H2l-1.023438-.175781C.324219 16.042969 0 15.433594 0 14.5v-5c0-.933594.324219-1.535156.976562-1.800781L2 7.5h5.5V2c0-1.332031.667969-2 2-2" fill="#3b3b3b"/><path d="M20 10.148438c-.199219-.132813-.417969-.171876-.648438-.125-.25.019531-.453124.117187-.601562.300781-.167969.183593-.25.390625-.25.625v2.074219c0 .25.082031.46875.25.652343.148438.183594.351562.289063.601562.324219L20 13.851562l1.574219-1.027343.375-.523438c.066406-.199219.066406-.410156 0-.625l-.375-.476562L20 10.148438M13.851562 4l-1.050781-1.574219-.476562-.375c-.214844-.066406-.425781-.066406-.625 0-.214844.082031-.390625.207031-.523438.375L10.148438 4c-.132813.199219-.183594.417969-.148438.648438.035156.25.140625.453124.324219.601562.183593.167969.402343.25.652343.25h2.074219c.234375 0 .441407-.082031.625-.25.183594-.148438.28125-.351562.300781-.601562.046876-.230469.007813-.449219-.125-.648438M4 10.148438l-1.574219 1.050781c-.167969.117187-.292969.277343-.375.476562-.066406.214844-.066406.425781 0 .625l.375.523438L4 13.851562c.199219.132813.417969.183594.648438.148438.25-.035156.453124-.140625.601562-.324219.167969-.183593.25-.402343.25-.652343v-2.074219c0-.234375-.082031-.441407-.25-.625-.148438-.183594-.351562-.28125-.601562-.300781-.230469-.046876-.449219-.007813-.648438.125M13.851562 20c.132813-.199219.171876-.417969.125-.648438-.019531-.25-.117187-.453124-.300781-.601562-.183593-.167969-.390625-.25-.625-.25h-2.074219c-.25 0-.46875.082031-.652343.25-.183594.148438-.289063.351562-.324219.601562-.035156.230469.015625.449219.148438.648438l1.027343 1.574219c.132813.167969.308594.292969.523438.375.199219.066406.410156.066406.625 0l.476562-.375L13.851562 20" fill="#545454"/></svg>