<svg xmlns="http://www.w3.org/2000/svg" width="24" height="21"><path d="M7.636719 5.25v10.5h2.179687v-3.148438h3.546875L14.183594 15.75h2.179687l-1.035156-4.015625.054687-.054687.027344-.023438c.636719-.613281.953125-1.347656.953125-2.207031V8.398438c0-.875-.316406-1.617188-.953125-2.230469l-.027344-.027344-.65625-.46875c-.453124-.265625-.964843-.40625-1.527343-.421875h-5.5625m2.179687 2.101562h3.273438c.292968 0 .546875.101563.765625.3125h.027343c.199219.195313.300782.4375.300782.734376v1.050781c0 .28125-.101563.515625-.300782.710937l-.054687.050782c-.199219.191406-.445313.289062-.738281.289062H9.816406V7.351562M4.363281 0h10.910157c2.398437 0 4.453124.824219 6.164062 2.46875C23.144531 4.113281 24 6.089844 24 8.398438v8.402343C24 19.601562 22.546875 21 19.636719 21H4.363281C1.453125 21 0 19.601562 0 16.800781V4.199219c0-1.242188.289062-2.214844.871094-2.914063C1.398438.65625 2.171875.261719 3.191406.105469L4.363281 0" fill="#b2b4b2"/></svg>