<svg xmlns="http://www.w3.org/2000/svg" width="24" height="18.243"><rect width="24" height="8.6" fill="#3b3b3b" ry="4.5"/><path fill="#545454" d="M21.79982 18.076603v-5.780887h-1.311064v-1.177061h3.511239v1.177061h-1.308049v5.780887zm-2.625141-2.558209.865.431906q-.19892 1.13909-.663066 1.694397-.461132.550561-1.172422.550561-.88007 0-1.446691-.944496-.56662-.949243-.56662-2.591432 0-1.737114.569634-2.695849Q17.330148 11 18.258442 11q.810749 0 1.317091.754648.301394.446144.452091 1.281477l-.883085.332235q-.07836-.541068-.328519-.854318-.247143-.31325-.602788-.31325-.491272 0-.798693.555307-.304408.555306-.304408 1.798814 0 1.319447.301394 1.8795.301394.560053.783623.560053.355645 0 .611831-.355966.256184-.355966.3677-1.120106zm-6.944115 2.558209v-6.957948h3.276152v1.177061H13.12269v1.542519h2.218259v1.172314H13.12269v1.893739h2.468416v1.172315zm-3.7463258 0V11.17561h.8921262v5.728678h2.2182586v1.172315zm-4.1411522 0v-6.957948h3.2761516v1.177061H5.2352119v1.542519H7.453471v1.172314H5.2352119v1.893739h2.468416v1.172315zM-5e-8 15.812659l.8680144-.132894q.0783621.688201.31646365 1.010944.2411151.322742.6479968.322742.4309933 0 .6479969-.284773.2200176-.289519.2200176-.673962 0-.246803-.093432-.417666-.0904183-.17561-.3194776-.303758-.1567249-.085432-.7143036-.303758-.71731745-.280026-1.00665562-.688201-.40688176-.574291-.40688176-1.400132 0-.531576.18987815-.991959.1928921-.465128.55155085-.707185Q1.2628403 11 1.772196 11q.8318472 0 1.2507848.574292.4219514.574291.443049 1.533026l-.892126.0617q-.0572648-.536321-.2471429-.768885-.1868643-.237311-.5636067-.237311-.388798 0-.6088156.251549-.1416552.161371-.1416552.431906 0 .246803.1326134.422413.1687805.223071.8197914.465128.6510108.242057.9614465.503099.3134497.256295.4882581.707186.1778224.446144.1778224 1.105867 0 .598023-.2109757 1.120106-.2109758.522084-.5967599.778379-.3857842.251549-.9614466.251549-.83787499 0-1.28695191-.607515Q.08740418 16.980228-5e-8 15.812659Z"/></svg>