<svg xmlns="http://www.w3.org/2000/svg" width="24" height="18.243"><rect width="24" height="8.6" fill="#3b3b3b" ry="4.5"/><path fill="#545454" d="M21.328462 18.076598v-5.780883h-1.591949v-1.17706h4.263497v1.17706h-1.58829v5.780883zm-6.616654 0v-6.957943h2.279964q.860019 0 1.247942.189849.391583.185102.625801.664469.234217.479367.234217 1.096374 0 .783125-.354986 1.295715-.354987.507845-1.061299.640738.351326.265788.578225.583784.230558.317996.618481 1.129598l.655078 1.357416h-1.295517l-.783166-1.514041q-.4172-.811602-.570906-1.020435-.153706-.213579-.325709-.289519-.172004-.08069-.545288-.08069h-.219579v2.90468zm1.083258-4.015293h.801464q.779505 0 .973467-.08543.193962-.08543.303752-.294265.109789-.208833.109789-.522083 0-.35122-.146386-.564799-.142726-.218326-.406221-.27528-.131748-.02373-.790485-.02373h-.84538zm-1.661484 4.015293h-1.178408l-.468436-1.580488h-2.144557l-.4428178 1.580488H8.7502319l2.0896621-6.957943h1.145472zm-1.994511-2.752802-.73925-2.581937-.724611 2.581937zm-5.6578244 2.752802v-5.780883H4.8892973v-1.17706h4.2634965v1.17706H7.5645041v5.780883zM0 15.812656l1.0539802-.132894q.095151.6882.3842636 1.010943.2927723.322742.7868256.322742.5233304 0 .7868255-.284773.2671547-.289518.2671547-.673961 0-.246803-.1134492-.417667-.1097896-.17561-.3879233-.303757-.190302-.085432-.8673379-.303758-.8709976-.280026-1.22232432-.6882Q.19396163 13.76704.19396163 12.9412q0-.531576.23055819-.991958.23421783-.465129.66971658-.707185Q1.5333949 11 2.1518763 11q1.0100644 0 1.5187563.574291.5123515.574292.5379691 1.533026l-1.0832575.0617q-.0695334-.536321-.3000916-.768885-.2268986-.237311-.6843553-.237311-.4720953 0-.73925.251549-.1720037.161371-.1720037.431905 0 .246803.1610247.422413.2049407.223072.9954258.465128.7904852.242057 1.1674295.503099.3806041.256295.592864.707185.2159195.446143.2159195 1.105866 0 .598023-.2561758 1.120106-.2561757.522083-.7246113.778378-.4684357.251549-1.1674295.251549-1.0173838 0-1.56267216-.607515Q.10612995 16.980223 0 15.812656Z"/></svg>