<svg xmlns="http://www.w3.org/2000/svg" width="24" height="24"><path d="M24 12c0 3.332031-1.175781 6.160156-3.523438 8.476562C18.160156 22.824219 15.332031 24 12 24c-3.316406 0-6.148438-1.175781-8.5-3.523438C1.167969 18.160156 0 15.332031 0 12c0-3.316406 1.167969-6.148438 3.5-8.5C5.851562 1.167969 8.683594 0 12 0c3.332031 0 6.160156 1.167969 8.476562 3.5C22.824219 5.851562 24 8.683594 24 12M7.5 8.5l3.5 3.949219V17h2v-4.550781L16.5 8.5V8l-1.125-1h-.550781L12 10.273438 9.199219 7H8.625L7.5 8v.5" fill="#007243"/></svg>